<svg width="2823" height="768" viewBox="0 0 2823 768" fill="none" xmlns="http://www.w3.org/2000/svg">
<path fill-rule="evenodd" clip-rule="evenodd" d="M232.5 0.671203C154.005 8.7242 91.234 45.5362 49.296 108.108C9.11699 168.055 -7.64301 249.346 3.92999 328.139C11.699 381.033 31.405 429.642 61.171 469.329C69.99 481.088 91.458 503.398 102.5 512.28C138.58 541.299 178.931 558.476 226.723 565.161C242.506 567.369 276.812 568.142 293.024 566.655C357.284 560.76 424.432 538.765 495.656 500.282C504.37 495.574 512.342 491.099 513.372 490.339C514.66 489.388 508.574 490.12 493.872 492.686C443.275 501.517 414.132 503.987 360 504.034C323.756 504.066 315.966 503.791 298.494 501.864C239.967 495.41 194.143 482.775 151.5 461.333C85.907 428.353 42.866 378.382 29.429 319.608C20.857 282.115 25.776 242.898 43.47 207.667C54.112 186.478 65.369 171.088 83.011 153.608C163.207 74.1492 309.695 41.1962 484.746 63.2352C491.481 64.0832 497.502 64.6072 498.124 64.4002C498.747 64.1922 491.691 60.4962 482.444 56.1872C418.325 26.3032 366.692 10.1402 309.5 2.04922C296.349 0.189224 245.988 -0.712797 232.5 0.671203ZM1893.5 1.70322C1796.18 11.7842 1707.33 67.6992 1652.91 153.108C1608.95 222.111 1595.63 301.086 1616.59 368.448C1639.67 442.642 1698.08 497.637 1792 533.606C1798.88 536.24 1808.63 540.225 1813.68 542.462C1857.63 561.949 1915.83 565.736 1983 553.481C2040.84 542.93 2100.8 520.621 2149.53 491.523C2170.73 478.862 2184.64 468.267 2198.5 454.206C2214.99 437.483 2220.92 426.881 2220.95 414.108C2221.01 379.1 2155.9 365.129 2039.5 375.17C2029.6 376.024 2018.58 377.07 2015 377.494L2008.5 378.265L2019 383.129C2052.72 398.748 2075.06 412.617 2089.06 426.611C2102.29 439.848 2106.81 450.863 2103.57 462.005C2100.53 472.468 2092.07 480.637 2076.5 488.137C2028.62 511.201 1935.92 513.697 1856 494.073C1755.13 469.304 1687.94 415.564 1668.46 344.064C1664.02 327.746 1662.94 318.947 1661.98 291.108C1661.47 276.258 1660.81 262.746 1660.52 261.08C1659.65 256.088 1661.81 229.704 1664.02 218.227C1670.06 186.927 1682.94 162.503 1704.94 140.607C1738.53 107.179 1788.77 86.7382 1862 76.7012C1907.47 70.4692 1960.7 69.3322 2057 72.5372C2097.16 73.8742 2112 72.2142 2112 66.3832C2112 63.1502 2103.75 56.0192 2091.68 48.8122C2076.47 39.7362 2043.92 23.3382 2034 19.7552C2012.21 11.8822 1982.4 4.92322 1958.49 2.12622C1944.47 0.48622 1907.57 0.245216 1893.5 1.70322ZM2536.28 7.35821C2535.13 9.42121 2530.85 17.4082 2526.76 25.1082C2515.3 46.7102 2375.29 309.291 2361.99 334.108C2355.51 346.208 2335.7 383.333 2317.98 416.608C2300.26 449.883 2277.04 493.398 2266.38 513.309C2255.72 533.219 2247 549.95 2247 550.488C2247 552.249 2258.29 554.09 2269 554.077C2286.25 554.056 2298.51 548.579 2312.58 534.608C2322.83 524.426 2331.16 511.832 2347.96 481.108C2365.58 448.883 2374.6 435.065 2385.23 423.985C2394.41 414.416 2398.54 411.282 2408.64 406.232C2416.8 402.152 2421.13 400.912 2431.99 399.55C2444.07 398.035 2453.04 399.646 2476.93 407.617C2512.71 419.555 2543.94 424.542 2599 427.105C2643.2 429.163 2670.55 433.43 2691.64 441.559C2727.81 455.507 2752.98 487.733 2768.06 539.431C2771.85 552.426 2771.55 552.145 2787 557.108C2806.93 563.512 2819.05 559.335 2822.01 545.034C2827.1 520.533 2802.63 460.264 2748.76 364.608C2724.59 321.7 2698.33 277.871 2638.51 180.608C2593.16 106.871 2581.07 86.8952 2568.05 64.1912C2551.09 34.6312 2540 11.4002 2540 5.4512C2540 2.5422 2538.55 3.28521 2536.28 7.35821ZM1482.41 6.34222C1475.03 13.7202 1465.15 55.5862 1456.15 117.608C1454.59 128.333 1452.97 137.034 1452.55 136.944C1452.13 136.854 1446.59 130.329 1440.25 122.444C1396.51 68.0822 1363.25 37.0772 1339.49 28.5042C1331.25 25.5322 1320.95 25.4742 1315.39 28.3692C1303.19 34.7122 1295.92 50.1862 1291.31 79.6082C1289.77 89.4022 1289.51 97.4122 1289.54 133.608C1289.59 185.247 1290.55 198.966 1303.46 332.608C1315 451.999 1315.83 508.82 1306.5 541.009C1305.12 545.755 1304 550.027 1304 550.502C1304 551.698 1308.25 553.292 1316.5 555.188C1340.43 560.688 1357.44 545.188 1364.37 511.573C1367.84 494.729 1368.5 485.152 1368.44 452.608C1368.37 413.228 1367.3 398.547 1357.99 309.108C1349.95 231.952 1349.59 226.987 1349.54 193.608C1349.51 167.244 1349.75 162.023 1351.37 155.108C1353.76 144.859 1356.36 139.376 1360.58 135.669C1369.59 127.76 1382.33 132.359 1403.31 151.087C1420.02 166.015 1454.31 206.833 1455.73 213.493C1457.59 222.216 1456.31 273.826 1453.18 316.608C1447.9 388.866 1447.57 395.883 1447.54 439.108C1447.51 473.684 1447.82 483.639 1449.3 495.428C1453.63 530.053 1462.29 550.213 1475.58 556.646C1482.22 559.859 1493.91 559.118 1503.1 554.901C1509.27 552.068 1509.74 551.619 1510.33 547.99C1513.16 530.809 1513.62 335.94 1511.04 246.608C1505.96 70.3042 1496.64 -7.88678 1482.41 6.34222ZM834.5 39.2982C815.219 40.5702 785.082 45.3522 763.41 50.5782C726.475 59.4842 685.724 77.1462 656.667 96.8412C638.663 109.045 616.151 129.845 603.877 145.617C593.818 158.543 583 175.378 583 178.105C583 178.423 585.587 176.933 588.75 174.795C617.65 155.255 653.832 137.91 692.548 125.036C801.493 88.8082 927.295 86.6952 1026.52 119.427C1082.28 137.824 1133.45 169.804 1165 205.971C1169.12 210.7 1172.64 214.157 1172.81 213.652C1173.45 211.79 1165.78 190.773 1160.57 180.108C1134.38 126.45 1080.6 84.5422 1006.5 60.0592C959.753 44.6132 918.971 38.4402 866 38.7922C851.425 38.8892 837.25 39.1172 834.5 39.2982ZM2554.21 140.108C2560.55 151.658 2574.5 176.858 2585.21 196.108C2624.9 267.4 2638.26 294.732 2645.69 319.79C2647.99 327.563 2648.45 331.015 2648.48 340.608C2648.5 350.257 2648.16 352.847 2646.38 356.697C2640.42 369.571 2625.4 376.787 2598.5 379.688C2583.65 381.289 2543.18 380.267 2517.22 377.635C2484.17 374.285 2409.56 364.505 2408.43 363.374C2408.26 363.201 2420.68 339.221 2436.04 310.084C2451.4 280.947 2480.95 224.836 2501.7 185.393L2539.44 113.677L2541.06 116.393C2541.96 117.886 2547.87 128.558 2554.21 140.108ZM849 136.703C717.159 144.527 620.086 186.459 588.779 249.108C582.461 261.75 578 278.129 578 288.681V293.838L580.593 292.139C589.901 286.04 608.066 275.523 623.5 267.298C748.704 200.568 897.992 169.605 1024.46 184.136C1073.21 189.738 1123.51 203.369 1163.18 221.73C1170.17 224.963 1176.19 227.608 1176.56 227.608C1176.94 227.608 1175.54 225.47 1173.46 222.858C1141.77 183.087 1074.18 154.568 981 141.647C943.338 136.425 888.37 134.366 849 136.703ZM878.04 222.653C860.302 224.357 842.072 229.039 830.5 234.862C805.117 247.636 790.978 266.855 791.012 288.54C791.034 302.385 795.851 313.929 805.937 324.3C821.666 340.474 844.353 349.008 875 350.278C912.708 351.84 944.524 343.775 965.549 327.324C1005.14 296.349 993.04 246.185 941.722 228.52C925.795 223.038 899.374 220.604 878.04 222.653ZM1180.5 321.775C1117.49 361.143 987.957 387.578 858 387.592C782.029 387.6 719.068 380.383 657.5 364.611C634.624 358.751 615.142 352.539 596.483 345.155C588.853 342.135 582.448 339.827 582.25 340.025C581.598 340.676 590.365 347.237 598.073 351.866C646.952 381.219 746.16 413.368 839.403 430.07C961.629 451.965 1061.74 447.298 1121.48 416.921C1147.79 403.543 1165.64 386.312 1177.22 363.108C1183.46 350.618 1189.65 327.432 1188.81 319.682L1188.5 316.777L1180.5 321.775ZM580.517 346.608C581.937 354.168 589.146 373.995 594.038 383.792C615.362 426.496 651.979 460.539 705 486.956C745.605 507.186 788.501 519.521 840.214 525.838C864.649 528.822 917.295 529.062 940 526.292C1005.49 518.303 1054.8 501.294 1099.5 471.274C1125.78 453.623 1151.47 426.577 1168.04 399.108L1170.45 395.108L1167.98 396.69C1121.46 426.394 1068.33 447.024 1006 459.581C972.454 466.339 942.23 469.472 902.5 470.308C841.17 471.599 787.649 463.948 733.463 446.145C670.477 425.45 618.651 391.237 582.68 346.607L579.86 343.108L580.517 346.608ZM735.653 716.053C725.394 742.163 717 763.801 717 764.137C717 764.472 717.949 764.603 719.108 764.428C720.801 764.171 722.3 761.396 726.712 750.358L732.207 736.608H751.445H770.684L776.071 750.608L781.458 764.608H786.729C789.628 764.608 792 764.39 792 764.125C792 763.485 755.038 669.313 754.625 668.9C754.449 668.724 745.911 689.943 735.653 716.053ZM1307.96 715.695C1297.81 741.587 1289.34 763.223 1289.14 763.774C1288.94 764.325 1289.82 764.626 1291.1 764.442C1293.07 764.159 1294.25 762.027 1298.89 750.358L1304.36 736.608H1323.59H1342.82L1348.18 750.358L1353.55 764.108L1358.77 764.41C1361.65 764.577 1364 764.34 1364 763.884C1364 762.952 1328.43 672.195 1327.21 670.017C1326.71 669.118 1319.83 685.446 1307.96 715.695ZM1491 716.881C1491 763.845 1491.03 764.608 1492.99 764.608C1494.93 764.608 1494.98 763.778 1495.24 727.13L1495.5 689.653L1528.44 728.63C1546.56 750.068 1561.52 767.608 1561.69 767.608C1561.86 767.608 1562 746.233 1562 720.108C1562 673.275 1561.97 672.608 1560 672.608C1558.04 672.608 1558 673.275 1558 709.667C1558 732.913 1557.64 746.506 1557.05 746.137C1556.52 745.813 1542.5 729.474 1525.9 709.828C1509.29 690.182 1494.65 672.993 1493.35 671.631L1491 669.153V716.881ZM2577 713.858C2567.47 738.196 2559.06 759.571 2558.32 761.358C2557.02 764.489 2557.06 764.608 2559.34 764.608C2561.46 764.608 2562.27 763.148 2567.1 750.612L2572.5 736.616L2591.85 736.862L2611.21 737.108L2616.71 750.858L2622.21 764.608H2627.62H2633.03L2631.69 761.358C2630.95 759.571 2622.55 738.196 2613.02 713.858C2603.49 689.521 2595.39 669.608 2595.01 669.608C2594.64 669.608 2586.53 689.521 2577 713.858ZM2052.5 671.755C2042.34 675.505 2039.21 686.471 2044.97 698.108C2046.61 701.408 2048.63 705.043 2049.48 706.186C2050.94 708.168 2050.76 708.442 2045.48 712.078C2032.52 721.005 2026.37 731.23 2027.19 742.509C2027.73 750.01 2030.57 755.275 2036.53 759.806C2042.49 764.335 2048.88 766.002 2060 765.933C2071.59 765.861 2077.61 763.958 2087.26 757.318C2088.77 756.278 2089.54 756.715 2092.76 760.427C2096.47 764.706 2096.55 764.743 2102.35 764.427L2108.2 764.108L2101.73 756.193L2095.26 748.277L2097.67 743.027C2100.03 737.854 2102.95 726.25 2102.98 721.858C2102.99 720.374 2102.4 719.609 2101.25 719.611C2099.86 719.614 2099.17 721.287 2097.9 727.861C2097.02 732.397 2095.44 738.065 2094.4 740.456L2092.5 744.804L2077.21 725.486L2061.93 706.169L2066.89 701.638C2072.84 696.205 2074.6 693.412 2075.44 688.108C2076.18 683.386 2073.1 676.386 2068.94 673.364C2065.84 671.109 2056.68 670.212 2052.5 671.755ZM384.994 672.542C376.616 675.091 370.64 680.77 368.958 687.783C366.389 698.492 372.059 706.906 389.919 718.889C402.344 727.226 409.761 733.861 411.643 738.326C413.699 743.201 413.335 748.815 410.711 752.71C403.065 764.062 382.667 764.034 369.704 752.653L366 749.401V753.423C366 756.884 366.453 757.723 369.25 759.441C374.881 762.9 384.557 765.608 391.287 765.608C412.845 765.608 426.031 751.138 420.797 733.224C419.075 727.33 408.733 717.458 396.579 710.108C391.122 706.808 384.442 702.083 381.733 699.608C377.536 695.772 376.734 694.438 376.298 690.562C375.855 686.63 376.166 685.564 378.602 682.67C384.981 675.089 396.414 673.425 406.609 678.595C409.849 680.238 412.612 681.588 412.75 681.595C412.888 681.602 413 680.092 413 678.24C413 674.989 412.798 674.815 407.184 673.24C401.203 671.562 389.434 671.192 384.994 672.542ZM0 718.565V764.713L5.25 764.41L10.5 764.108L11 745.514L11.5 726.92L35.5 745.743C53.554 759.903 60.196 764.572 62.309 764.587C63.854 764.599 64.896 764.249 64.624 763.809C64.353 763.37 52.917 754.257 39.21 743.559L14.29 724.108L25.611 723.42C38.306 722.649 44.216 720.672 49.872 715.307C59.683 706 59.438 687.756 49.399 680.098C41.359 673.967 38.021 673.183 18.25 672.785L0 672.417V718.565ZM188.24 718.358L188.5 764.108L214.25 764.375C239.493 764.637 240 764.602 240 762.625C240 760.668 239.391 760.608 219.5 760.608H199V740.108V719.608H216.5C233.333 719.608 234 719.532 234 717.608C234 715.684 233.333 715.608 216.5 715.608H199V696.108V676.608H219.5C239.333 676.608 240 676.543 240 674.608C240 672.659 239.333 672.608 213.99 672.608H187.98L188.24 718.358ZM539 674.608C539 676.516 539.667 676.608 553.5 676.608H568V720.608V764.608H573H578V720.608V676.608H592.5C606.333 676.608 607 676.516 607 674.608C607 672.647 606.333 672.608 573 672.608C539.667 672.608 539 672.647 539 674.608ZM912.031 700.358C912.065 731.401 912.891 740.507 916.36 748.083C921.587 759.501 930.143 764.736 944.684 765.413C960.117 766.132 968.315 761.805 974.215 749.826L977.5 743.157L977.808 707.882C978.111 673.241 978.081 672.608 976.129 672.608C974.19 672.608 974.131 673.465 973.776 706.858C973.462 736.328 973.171 741.726 971.686 745.539C967.452 756.413 959.634 761.597 947.5 761.576C939.084 761.562 933.831 759.457 929.284 754.279C923.358 747.529 922.813 743.819 922.257 706.358L921.755 672.608H916.878H912L912.031 700.358ZM1108 718.513V764.608H1113H1118V745.608C1118 735.158 1118.22 726.608 1118.5 726.608C1118.78 726.608 1129.91 735.153 1143.25 745.597C1161.55 759.928 1168.19 764.588 1170.31 764.597C1171.85 764.603 1172.91 764.27 1172.65 763.858C1172.4 763.446 1160.92 754.333 1147.15 743.608L1122.11 724.108L1133.47 723.423C1146.95 722.61 1153.18 720.368 1158.59 714.378C1163.37 709.083 1165.01 704.872 1164.98 697.89C1164.94 687.557 1160.29 680.691 1150 675.759C1144.79 673.263 1143.53 673.105 1126.25 672.771L1108 672.417V718.513ZM1690 674.608C1690 676.516 1690.67 676.608 1704.5 676.608H1719V720.608V764.608H1724H1729V720.608V676.608H1743C1756.33 676.608 1757 676.513 1757 674.608C1757 672.648 1756.33 672.608 1723.5 672.608C1690.67 672.608 1690 672.648 1690 674.608ZM2379 718.608V764.608H2393.36C2410.02 764.608 2416.45 763.613 2423.82 759.893C2433.46 755.033 2438.24 747.459 2438.25 737.063C2438.25 726.59 2432.07 718.317 2420.74 713.62L2415.1 711.282L2418.96 708.781C2424.91 704.921 2427.31 699.812 2426.81 692.035C2426.35 684.766 2424.55 681.642 2418.42 677.448C2413.19 673.877 2406.09 672.608 2391.33 672.608H2379V718.608ZM2760 718.608V764.608H2764.98H2769.96L2770.23 745.636L2770.5 726.664L2794.82 745.694C2815.33 761.74 2819.6 764.675 2822.04 764.416C2824.63 764.14 2822.26 762.029 2799.25 744.108L2773.57 724.108L2784.66 723.462C2800.69 722.529 2809.28 718.267 2814.05 708.885C2818.55 700.023 2816.58 686.97 2809.85 681.043C2802.23 674.343 2795.12 672.608 2775.29 672.608H2760V718.608ZM2065.75 678.201C2070.02 682.984 2067.84 694.651 2061.57 700.54L2059.16 702.804L2055.64 697.956C2051.27 691.944 2049.7 686.277 2051.05 681.396C2052.12 677.528 2053.39 676.107 2056.5 675.313C2059.86 674.455 2063.39 675.556 2065.75 678.201ZM33.101 677.761C42.065 680.802 45.942 686.832 45.978 697.793C46.004 705.549 44.918 708.99 41.186 712.981C37.203 717.242 33.398 718.454 21.627 719.215L11 719.903V698.255V676.608H20.351C25.494 676.608 31.231 677.127 33.101 677.761ZM1140.5 677.727C1149.54 680.231 1153.94 686.564 1153.97 697.108C1154 705.753 1152.54 709.887 1148.04 713.953C1143.52 718.039 1140.51 718.782 1127.74 718.971L1118.5 719.108L1118.23 697.858L1117.96 676.608L1127.23 676.614C1132.33 676.617 1138.3 677.118 1140.5 677.727ZM2410.77 679.126C2420.67 684.994 2420.02 702.928 2409.7 708.261C2407.84 709.227 2403.01 710.087 2397.78 710.385L2389 710.885V693.627V676.369L2398.25 676.778C2405.06 677.079 2408.36 677.699 2410.77 679.126ZM2792.22 677.652C2801 680.092 2805.36 686.668 2805.44 697.608C2805.49 704.038 2805.11 705.772 2802.76 709.762C2798.85 716.418 2794.17 718.433 2780.69 719.258L2770 719.912V698.26V676.608L2779.25 676.614C2784.34 676.617 2790.17 677.084 2792.22 677.652ZM766.987 727.358L768.972 732.608H751.379C735.044 732.608 733.832 732.483 734.433 730.858C734.789 729.895 738.736 719.758 743.205 708.33L751.33 687.552L758.166 704.83C761.925 714.333 765.895 724.47 766.987 727.358ZM1332.03 709.108C1336.55 720.658 1340.47 730.671 1340.73 731.358C1341.11 732.329 1337.27 732.608 1323.52 732.608C1313.79 732.608 1305.98 732.221 1306.17 731.747C1312.67 714.953 1323.5 687.774 1323.63 687.916C1323.73 688.022 1327.51 697.558 1332.03 709.108ZM2601.05 710.914C2605.54 722.357 2609.01 731.931 2608.75 732.188C2608.5 732.446 2600.66 732.533 2591.35 732.382L2574.42 732.108L2582.95 710.396C2587.64 698.454 2591.79 689.004 2592.18 689.396C2592.56 689.787 2596.56 699.471 2601.05 710.914ZM2070.94 733.108C2079.22 743.558 2085.99 752.34 2086 752.624C2086.01 753.814 2076.07 759.511 2072.14 760.571C2066.75 762.02 2054.32 762.06 2050.58 760.639C2041.86 757.321 2037.7 750.468 2037.77 739.513C2037.82 730.782 2040.32 725.221 2047.64 717.548C2052.28 712.682 2053.61 711.787 2054.63 712.826C2055.33 713.531 2062.67 722.658 2070.94 733.108ZM2415 716.896C2426 721.763 2430.7 736.564 2424.94 748.188C2420.54 757.04 2412.34 760.608 2396.36 760.608H2389V737.482V714.356L2400.25 714.852C2407.22 715.159 2412.83 715.937 2415 716.896Z" fill="#B6B8B9"></path>
</svg>